<svg width="1920" height="240" viewBox="0 0 1920 240" xmlns="http://www.w3.org/2000/svg"><rect width="1920" height="240" fill="#005bbc"/><path d="M 0,240 C 0,240 0,60 0,60 C 10.084586199308497,61.852765328915076 20.169172398616993,63.70553065783015 70,67 C 119.830827601383,70.29446934216985 209.40789660484054,75.0306426975945 227,73 C 244.59210339515946,70.9693573024055 190.19924118202093,62.17189855179188 198,54 C 205.80075881797907,45.82810144820812 275.7951386670758,38.281763095238 340,39 C 404.2048613329242,39.718236904762 462.6202041496758,48.701049067256115 504,56 C 545.3797958503242,63.298950932743885 569.724044734221,68.91404063573755 591,67 C 612.275955265779,65.08595936426245 630.4836169134401,55.64278838979367 640,50 C 649.5163830865599,44.35721161020633 650.3414876120188,42.514805805087775 716,50 C 781.6585123879812,57.485194194912225 912.1504326384847,74.29798838985522 933,78 C 953.8495673615153,81.70201161014478 865.0567818340426,72.2932406354913 871,69 C 876.9432181659574,65.7067593645087 977.6224400253448,68.5290490681796 1018,67 C 1058.3775599746552,65.4709509318204 1038.4534580645786,59.59056309179029 1080,56 C 1121.5465419354214,52.40943690820971 1224.5637277163414,51.10869856465927 1258,50 C 1291.4362722836586,48.89130143534073 1255.2916310700562,47.97464264957265 1293,46 C 1330.7083689299438,44.02535735042735 1442.2697480034342,40.99273083705011 1508,38 C 1573.7302519965658,35.00726916294989 1593.6293769162069,32.0544340022269 1612,37 C 1630.3706230837931,41.9455659977731 1647.2127443317386,54.78953315404228 1652,57 C 1656.7872556682614,59.21046684595772 1649.5196457568393,50.787433381604004 1669,50 C 1688.4803542431607,49.212566618395996 1734.7086726409032,56.06073331954171 1781,59 C 1827.2913273590968,61.93926668045829 1873.6456636795483,60.969633340229144 1920,60 C 1920,60 1920,240 1920,240 Z" fill="#ffd600" opacity="0.15"/><path d="M 0,240 C 0,240 0,120 0,120 C 26.415082712224994,130.215345742858 52.83016542444999,140.43069148571598 77,140 C 101.16983457555001,139.56930851428402 123.09442101442508,128.492579799994 174,124 C 224.90557898557492,119.50742020000601 304.79215051784973,121.598989314308 349,119 C 393.20784948215027,116.401010685692 401.736976914176,109.11146294277395 406,104 C 410.263023085824,98.88853705722605 410.2599418254463,95.95515891459615 437,99 C 463.7400581745537,102.04484108540385 517.2232557840389,111.06790139884144 561,108 C 604.7767442159611,104.93209860115856 638.8470350383983,89.77323549003808 665,99 C 691.1529649616017,108.22676450996192 709.3886040623678,141.83915664100627 732,142 C 754.6113959376322,142.16084335899373 781.5985487121303,108.8701379459368 823,98 C 864.4014512878697,87.1298620540632 920.2172010891112,98.68029157524651 934,107 C 947.7827989108888,115.31970842475349 919.5326469314239,120.40869575307718 977,126 C 1034.4673530685761,131.59130424692282 1177.6522111851934,137.68492541244478 1224,139 C 1270.3477888148066,140.31507458755522 1219.8585083278022,136.8516025971437 1220,137 C 1220.1414916721978,137.1483974028563 1270.9137555035975,140.90866419898035 1318,141 C 1365.0862444964025,141.09133580101965 1408.4864696578072,137.51374060693496 1457,129 C 1505.5135303421928,120.48625939306504 1559.1403658651734,107.03637337327986 1591,101 C 1622.8596341348266,94.96362662672014 1632.9520668814998,96.34076589994561 1670,98 C 1707.0479331185002,99.65923410005439 1771.0513666088266,101.60056302693769 1783,107 C 1794.9486333911734,112.39943697306231 1754.8424666831922,121.25698199230352 1769,124 C 1783.1575333168078,126.74301800769648 1851.5787666584038,123.37150900384825 1920,120 C 1920,120 1920,240 1920,240 Z" fill="#ffd600" opacity="0.3"/><path d="M 0,240 C 0,240 0,180 0,180 C 33.59229643334594,171.84068864387214 67.18459286669189,163.68137728774428 95,167 C 122.81540713330811,170.31862271225572 144.8539249665784,185.115179492895 173,181 C 201.1460750334216,176.884820507105 235.39970726699443,153.85790474067576 261,159 C 286.6002927330056,164.14209525932424 303.547245965444,197.45320154440196 351,202 C 398.452754034556,206.54679845559804 476.4113088712296,182.3292890817164 521,180 C 565.5886911287704,177.6707109182836 576.8075185496374,197.2296421287324 590,192 C 603.1924814503626,186.7703578712676 618.358616930221,156.752142403354 664,159 C 709.641383069779,161.247857596646 785.7580137294785,195.7617882578517 820,200 C 854.2419862705215,204.2382117421483 846.6093281518647,178.20070456523916 838,165 C 829.3906718481353,151.79929543476084 819.8046736630627,151.43539348119165 883,159 C 946.1953263369373,166.56460651880835 1082.1719771958844,182.05772150999417 1140,185 C 1197.8280228041156,187.94227849000583 1177.5074175533996,178.33372047883176 1204,173 C 1230.4925824466004,167.66627952116824 1303.7983525905172,166.60739657467877 1324,171 C 1344.2016474094828,175.39260342532123 1311.299172084532,185.23669322245314 1307,192 C 1302.700827915468,198.76330677754686 1327.004959071354,202.4458305355085 1363,198 C 1398.995040928646,193.5541694644915 1446.6809916300515,180.9799846355129 1515,171 C 1583.3190083699485,161.0200153644871 1672.2710744084397,153.63423092243983 1693,160 C 1713.7289255915603,166.36576907756017 1666.2347107361893,186.48309167472772 1701,189 C 1735.7652892638107,191.51690832527228 1852.790082646803,176.4334023786492 1903,172 C 1953.209917353197,167.5665976213508 1936.6049586765985,173.7832988106754 1920,180 C 1920,180 1920,240 1920,240 Z" fill="#ffd600" opacity="0.44999999999999996"/></svg>